<svg width="280" height="76" viewBox="0 0 280 76" xmlns="http://www.w3.org/2000/svg" role="img" aria-labelledby="t d">
  <title id="t">LeetCode</title><desc id="d">Visit sumit_verma_77 on LeetCode</desc>
  <style>
    .card{fill:#f6f8fa;stroke:#d0d7de}.label{font:600 10px ui-monospace,SFMono-Regular,Menlo,monospace;letter-spacing:1.6px;fill:#656d76}.value{font:600 15px ui-monospace,SFMono-Regular,Menlo,monos[...]
    @media(prefers-color-scheme:dark){.card{fill:#161b22;stroke:#30363d}.label,.arrow{fill:#8b949e}.value{fill:#f0f6fc}}
  </style>
  <rect class="card" x=".5" y=".5" width="279" height="75" rx="10"/>
  <g transform="translate(18, 20) scale(1.45)">
    <path fill="#B3B1B0" d="M22 14.355c0-.742-.564-1.346-1.26-1.346H10.676c-.696 0-1.26.604-1.26 1.346s.563 1.346 1.26 1.346H20.74c.696.001 1.26-.603 1.26-1.346z"></path>
    <path fill="#E7A41F" d="m3.482 18.187 4.313 4.361c.973.979 2.318 1.452 3.803 1.452 1.485 0 2.83-.512 3.805-1.494l2.588-2.637c.51-.514.492-1.365-.039-1.9-.531-.535-1.375-.553-1.884-.039l-2.676 [...]
    <path fill="#070706" d="M8.115 22.814a2.109 2.109 0 0 1-.474-.361c-1.327-1.333-2.66-2.66-3.984-3.997-1.989-2.008-2.302-4.937-.786-7.32a6 6 0 0 1 .839-1.004L13.333.489c.625-.626 1.498-.652 2.07[...]
  </g>
  <text class="label" x="62" y="29">LEETCODE</text><text class="value" x="62" y="51">sumit_verma_77</text><text class="arrow" x="250" y="43" font-family="Arial" font-size="18">↗</text>
</svg>
